<svg viewBox="0 0 93.466 45" fill="none" xmlns="http://www.w3.org/2000/svg" xmlns:xlink="http://www.w3.org/1999/xlink" id="e09c5aa2" x="0" y="0"><g id="page -main"><g id="Frame" clip-path="url(#clip0_1_426)"><g id="Group"><g id="Group_2"><path id="Vector" d="M17.207,14.7256c-2.978,0 -5.459,-1.4888 -5.459,-4.3008h3.639c0,1.1579 0.662,1.6541 1.654,1.6541c0.993,0 1.654,-0.4962 1.654,-1.3233c0,-2.6466 -6.947,-1.1579 -6.947,-6.1203c0,-2.6466 2.15,-4.1353 5.128,-4.1353c2.977,0 5.128,1.4887 5.128,4.1353h-3.639c0,-0.827 -0.662,-1.4887 -1.654,-1.4887c-0.662,0 -1.324,0.4963 -1.324,1.3233c0,2.4812 6.948,1.3233 6.948,5.9549c-0.166,2.3158 -1.985,4.3008 -5.128,4.3008z" fill="white"/><path id="Vector_2" d="M30.936,14.7256c-3.97,0 -7.113,-2.9775 -7.113,-7.1128c0,-4.1354 3.143,-7.1128 7.113,-7.1128c3.97,0 7.113,2.9774 7.113,7.1128c0,4.1353 -3.143,7.1128 -7.113,7.1128zM30.936,11.7481c2.15,0 3.639,-1.6541 3.639,-3.9699c0,-2.4812 -1.489,-3.9699 -3.639,-3.9699c-2.316,0 -3.639,1.4887 -3.639,3.9699c0,2.3158 1.323,3.9699 3.639,3.9699z" fill="white"/><path id="Vector_3" d="M46.485,14.5601h-6.451v-13.8947h6.286c2.812,0 4.466,1.4887 4.466,3.6391c0,1.6541 -0.993,2.812 -2.316,3.1429c1.654,0.3308 2.647,1.8195 2.647,3.3082c0,2.3158 -1.82,3.8045 -4.632,3.8045zM45.492,3.4774h-2.15v2.9775h2.15c1.158,0 1.655,-0.4963 1.655,-1.4887c0.165,-0.9925 -0.497,-1.4888 -1.655,-1.4888zM45.823,8.7707h-2.481v3.1428h2.481c1.158,0 1.82,-0.4962 1.82,-1.4887c0,-0.9925 -0.662,-1.6541 -1.82,-1.6541z" fill="white"/><path id="Vector_4" d="M58.726,0.6654c3.473,0 5.127,1.985 5.127,4.4662c0,1.8195 -0.992,3.4737 -3.142,3.9699l3.142,5.4586h-3.804l-2.978,-5.2932h-0.827v5.2932h-3.473v-13.8947zM58.56,3.4774h-2.15v3.4737h2.15c1.323,0 1.82,-0.6616 1.82,-1.8195c0,-0.9925 -0.662,-1.6542 -1.82,-1.6542z" fill="white"/><path id="Vector_5" d="M74.605,12.2444h-5.128l-0.827,2.4812h-3.639l4.963,-13.8947h3.97l4.962,13.8947h-3.639zM71.959,4.47l-1.654,5.1278h3.473z" fill="white"/><path id="Vector_6" d="M92.966,0.6654v13.8947h-3.474l-5.624,-8.6015v8.6015h-3.473v-13.8947h3.473l5.624,8.6015v-8.6015z" fill="white"/><path id="Vector_7" d="M24.65,22.5c0,4.1353 -2.812,6.9473 -7.278,6.9473h-5.293v-13.8947h5.293c4.466,0 7.278,2.812 7.278,6.9474zM17.041,26.6353c2.482,0 4.136,-1.4887 4.136,-3.9699c0,-2.4812 -1.489,-4.1353 -4.136,-4.1353h-1.654v8.1052z" fill="white"/><path id="Vector_8" d="M33.086,29.6128c-3.969,0 -7.112,-2.9775 -7.112,-7.1128c0,-4.1353 3.143,-7.1128 7.112,-7.1128c3.97,0 7.113,2.9775 7.113,7.1128c0,4.1353 -3.143,7.1128 -7.113,7.1128zM33.086,26.6353c2.151,0 3.64,-1.6541 3.64,-3.9699c0,-2.4812 -1.489,-3.9699 -3.64,-3.9699c-2.315,0 -3.639,1.4887 -3.639,3.9699c0,2.3158 1.489,3.9699 3.639,3.9699z" fill="white"/><path id="Vector_9" d="M42.184,15.5526h3.474v13.8947h-3.474z" fill="white"/><path id="Vector_10" d="M60.545,15.5526v13.8947h-3.474l-5.624,-8.6015v8.6015h-3.473v-13.8947h3.473l5.624,8.6015v-8.6015z" fill="white"/><path id="Vector_11" d="M25.147,34.906h-3.805c-0.496,-0.9925 -1.489,-1.4887 -2.812,-1.4887c-2.15,0 -3.639,1.4887 -3.639,3.9699c0,2.6468 1.489,4.1358 3.97,4.1358c1.654,0 2.812,-0.828 3.308,-2.482h-4.301v-2.4809h7.444v3.1429c-0.662,2.481 -2.977,4.797 -6.782,4.797c-4.135,0 -7.113,-2.977 -7.113,-7.1128c0,-4.1353 2.978,-7.1128 7.279,-7.1128c3.308,0 5.624,1.8196 6.451,4.6316z" fill="white"/><path id="Vector_12" d="M32.921,30.4399c3.474,0 5.128,1.9849 5.128,4.4661c0,1.8196 -0.993,3.4737 -3.143,3.97l3.143,5.459h-3.805l-2.977,-5.294h-0.827v5.294h-3.474v-13.8951zM32.756,33.2519h-2.151v3.4737h2.151c1.323,0 1.819,-0.6617 1.819,-1.8196c0,-0.9924 -0.496,-1.6541 -1.819,-1.6541z" fill="white"/><path id="Vector_13" d="M48.801,33.2519h-5.293v2.812h4.466v2.4811h-4.466v2.978h5.127v2.646h-8.436v-13.8946h8.602z" fill="white"/><path id="Vector_14" d="M55.914,44.5c-2.978,0 -5.294,-1.489 -5.459,-4.301h3.639c0.165,0.993 0.827,1.654 1.654,1.654c0.993,0 1.654,-0.496 1.654,-1.323c0,-2.6466 -6.947,-1.158 -6.947,-6.1202c0,-2.6467 2.15,-4.1354 5.128,-4.1354c2.977,0 5.128,1.4887 5.293,4.1354h-3.639c0,-0.8271 -0.662,-1.4888 -1.654,-1.4888c-0.827,0 -1.489,0.3309 -1.489,1.3233c0,2.4812 6.947,1.3233 6.947,5.9547c0,2.316 -1.819,4.301 -5.127,4.301z" fill="white"/><path id="Vector_15" d="M68.154,44.5c-2.977,0 -5.293,-1.489 -5.459,-4.301h3.64c0.165,0.993 0.827,1.654 1.654,1.654c0.992,0 1.654,-0.496 1.654,-1.323c0,-2.6466 -6.948,-1.158 -6.948,-6.1202c0,-2.6467 2.151,-4.1354 5.128,-4.1354c2.978,0 5.128,1.4887 5.294,4.1354h-3.64c0,-0.8271 -0.661,-1.4888 -1.654,-1.4888c-0.827,0 -1.488,0.3309 -1.488,1.3233c0,2.4812 6.947,1.3233 6.947,5.9547c0,2.316 -1.82,4.301 -5.128,4.301z" fill="white"/><path id="Vector_16" d="M81.883,44.5c-3.969,0 -7.112,-2.977 -7.112,-7.1128c0,-4.1353 3.143,-7.1128 7.112,-7.1128c3.97,0 7.113,2.9775 7.113,7.1128c0,4.1358 -3.143,7.1128 -7.113,7.1128zM81.883,41.523c2.151,0 3.64,-1.655 3.64,-3.9704c0,-2.4812 -1.489,-3.9699 -3.64,-3.9699c-2.315,0 -3.639,1.4887 -3.639,3.9699c0,2.3154 1.489,3.9704 3.639,3.9704z" fill="white"/></g><path id="Vector_17" d="M3.643,0.5h-3.143v14.2256h3.143z" fill="#3B19B5"/><path id="Vector_18" d="M3.643,14.7256h-3.143v14.2255h3.143z" fill="#FF8E08"/><path id="Vector_19" d="M3.643,28.9512h-3.143v14.2258h3.143z" fill="white"/></g></g></g><defs><clipPath id="clip0_1_426"><rect width="92.4662" height="44" fill="white" transform="translate(0.5, 0.5)"/></clipPath></defs></svg>