<svg viewBox="0 0 36 36" fill="none" xmlns="http://www.w3.org/2000/svg">
<path fill-rule="evenodd" clip-rule="evenodd" d="M6.7148 15.7214C9.62787 22.0661 14.8109 27.1106 21.2549 29.846L22.3916 30.3524C24.8231 31.4358 27.6812 30.6663 29.2402 28.5086L31.1518 25.863C31.9691 24.7318 31.7584 23.1589 30.6723 22.2826L27.3351 19.5904C26.1739 18.6536 24.4663 18.8718 23.5779 20.0705L22.8337 21.0748C19.5421 19.3784 16.8535 16.6898 15.1572 13.3982L16.1614 12.654C17.3602 11.7657 17.5784 10.0581 16.6415 8.89681L13.949 5.55924C13.073 4.4734 11.5006 4.2625 10.3694 5.07911L7.70951 6.99934C5.53753 8.56732 4.77264 11.4494 5.88129 13.8881L6.71305 15.7176L6.7148 15.7214ZM22.1428 27.7785C16.2122 25.2637 11.4414 20.6224 8.76047 14.7846L8.75957 14.7826L7.92956 12.9569C7.26437 11.4937 7.7233 9.76442 9.02649 8.82364L11.6864 6.90341C11.848 6.78675 12.0726 6.81688 12.1978 6.972L14.8903 10.3096C15.0242 10.4755 14.993 10.7194 14.8218 10.8463L13.0692 12.1451C12.6436 12.4605 12.4957 13.0301 12.7141 13.5128C14.721 17.9474 18.2846 21.511 22.7192 23.5179C23.2018 23.7363 23.7714 23.5884 24.0868 23.1628L25.3857 21.4102C25.5126 21.2389 25.7565 21.2078 25.9224 21.3416L29.2595 24.0338C29.4147 24.159 29.4448 24.3837 29.328 24.5453L27.4164 27.1909C26.481 28.4855 24.7662 28.9472 23.3073 28.2972L22.1615 27.7865L22.1428 27.7785Z" fill="black"/>
<path d="M20.6251 13.5C20.6251 13.7984 20.7436 14.0845 20.9546 14.2955C21.1655 14.5065 21.4517 14.625 21.7501 14.625H27.4927C28.114 14.625 28.6177 14.1213 28.6177 13.5C28.6177 12.8787 28.114 12.375 27.4927 12.375H24.466L29.2046 7.63647C29.6439 7.19713 29.6439 6.48482 29.2046 6.04548C28.7652 5.60614 28.0529 5.60614 27.6136 6.04548L22.8751 10.784V7.75734C22.8751 7.13602 22.3714 6.63234 21.7501 6.63234C21.1287 6.63234 20.6251 7.13602 20.6251 7.75734V13.5Z" fill="black"/>
</svg>
