<svg viewBox="0 0 16 19" fill="none" xmlns="http://www.w3.org/2000/svg">
<path fill-rule="evenodd" clip-rule="evenodd" d="M11.62 0.142088C11.701 1.21377 11.3666 2.27523 10.6877 3.1011C10.3626 3.51079 9.95 3.84044 9.48102 4.06511C9.01195 4.28987 8.49875 4.40379 7.97992 4.3984C7.94688 3.88303 8.0143 3.36607 8.17852 2.87714C8.34266 2.3882 8.60031 1.93688 8.93672 1.54888C9.62477 0.754758 10.5828 0.252446 11.62 0.142088ZM13.5116 7.94254C13.167 8.5579 12.9815 9.25164 12.9725 9.95923C12.9734 10.7551 13.2054 11.5331 13.6397 12.1962C14.0739 12.8594 14.6913 13.3784 15.4146 13.6884C15.1302 14.6247 14.7015 15.5094 14.1444 16.31C13.3962 17.4441 12.6117 18.5521 11.3666 18.5726C10.7745 18.5865 10.3747 18.4139 9.9582 18.2341C9.52367 18.0466 9.07094 17.8511 8.3625 17.8511C7.61117 17.8511 7.13813 18.0528 6.68195 18.2474C6.28773 18.4155 5.90609 18.5783 5.36813 18.6009C4.18234 18.6454 3.27617 17.3904 2.50078 16.2669C0.950938 13.9725 -0.255858 9.8009 1.36203 6.96238C1.73555 6.28225 2.27649 5.71178 2.93227 5.30653C3.58805 4.90127 4.33617 4.67509 5.10391 4.64992C5.77641 4.6359 6.42172 4.89858 6.9875 5.12888C7.42024 5.30502 7.80641 5.46217 8.12258 5.46217C8.40055 5.46217 8.77594 5.3112 9.21344 5.13529C9.90258 4.85813 10.7458 4.51898 11.6051 4.61041C12.2636 4.63123 12.9083 4.80746 13.4879 5.125C14.0674 5.44245 14.566 5.89252 14.9439 6.43948C14.3491 6.81006 13.8563 7.3271 13.5116 7.94254Z" fill="white"/>
</svg>
