<svg viewBox="0 0 110.64430025889641 20.868739630920402" fill="none" xmlns="http://www.w3.org/2000/svg" xmlns:xlink="http://www.w3.org/1999/xlink" id="24e3cca6" x="0" y="0"><g id="Home Page" clip-path="url(#clip0_1_1329)"><g id="Hero"><g clip-path="url(#clip1_1_1329)"><g id="appstore 1" clip-path="url(#clip3_1_1329)"><path id="Vector_28" fill-rule="evenodd" clip-rule="evenodd" d="M11.5263,0.93402c0.081,1.072 -0.253,2.133 -0.932,2.959c-0.325,0.41 -0.738,0.739 -1.207,0.964c-0.469,0.225 -0.982,0.339 -1.501,0.333c-0.033,-0.515 0.034,-1.032 0.199,-1.521c0.164,-0.489 0.421,-0.94 0.758,-1.328c0.688,-0.794 1.646,-1.297 2.683,-1.407zM13.4183,8.73502c-0.345,0.615 -0.531,1.309 -0.539,2.016c0,0.796 0.232,1.574 0.667,2.237c0.434,0.663 1.051,1.182 1.775,1.492c-0.285,0.937 -0.714,1.821 -1.271,2.622c-0.748,1.134 -1.532,2.242 -2.777,2.263c-0.593,0.013 -0.992,-0.159 -1.409,-0.339c-0.434,-0.187 -0.887,-0.383 -1.595,-0.383c-0.752,0 -1.225,0.202 -1.681,0.396c-0.394,0.168 -0.776,0.331 -1.314,0.354c-1.186,0.044 -2.092,-1.211 -2.867,-2.334c-1.55,-2.294 -2.757,-6.466 -1.139,-9.305c0.374,-0.68 0.914,-1.25 1.57,-1.655c0.656,-0.406 1.404,-0.632 2.172,-0.657c0.672,-0.014 1.318,0.249 1.884,0.479c0.432,0.176 0.818,0.333 1.135,0.333c0.278,0 0.653,-0.151 1.09,-0.327c0.69,-0.277 1.533,-0.616 2.392,-0.525c0.659,0.021 1.303,0.197 1.883,0.515c0.579,0.317 1.078,0.768 1.456,1.314c-0.595,0.371 -1.088,0.888 -1.432,1.504z" fill="white"/><path id="Vector_29" fill-rule="evenodd" clip-rule="evenodd" d="M21.9233,14.29702c0.002,-0.093 0.031,-0.183 0.083,-0.259c0.052,-0.076 0.125,-0.134 0.21,-0.168c0.085,-0.034 0.177,-0.042 0.267,-0.023c0.089,0.019 0.171,0.064 0.235,0.131c0.064,0.066 0.107,0.149 0.124,0.24c0.017,0.091 0.007,0.185 -0.028,0.27c-0.035,0.086 -0.095,0.158 -0.171,0.21c-0.076,0.051 -0.165,0.078 -0.256,0.078c-0.062,0.001 -0.123,-0.012 -0.18,-0.036c-0.057,-0.024 -0.109,-0.059 -0.152,-0.104c-0.044,-0.045 -0.078,-0.098 -0.1,-0.156c-0.023,-0.058 -0.034,-0.121 -0.032,-0.183zM21.9993,20.30502v-5.058h0.775v5.058zM24.0423,16.48802h0.716v0.606h0.055c0.095,-0.218 0.254,-0.4 0.455,-0.522c0.202,-0.122 0.436,-0.177 0.669,-0.158c0.184,-0.014 0.368,0.014 0.539,0.082c0.171,0.068 0.325,0.174 0.45,0.31c0.125,0.137 0.219,0.3 0.273,0.478c0.055,0.177 0.069,0.365 0.042,0.55v2.471h-0.743v-2.283c0,-0.613 -0.263,-0.918 -0.813,-0.918c-0.124,-0.005 -0.249,0.016 -0.364,0.063c-0.116,0.048 -0.22,0.12 -0.305,0.211c-0.085,0.092 -0.15,0.202 -0.19,0.321c-0.04,0.12 -0.054,0.247 -0.04,0.372v2.234h-0.744zM29.7683,16.42402c-0.952,0 -1.564,0.764 -1.564,1.97c0,1.209 0.606,1.974 1.564,1.974c0.238,0.008 0.475,-0.049 0.683,-0.166c0.209,-0.118 0.381,-0.291 0.5,-0.501h0.059v0.604h0.712v-5.308h-0.743v2.096h-0.056c-0.11,-0.211 -0.277,-0.386 -0.481,-0.504c-0.205,-0.119 -0.439,-0.176 -0.674,-0.165zM29.9793,19.69102c-0.63,0 -1.007,-0.487 -1.007,-1.297c0,-0.803 0.381,-1.293 1.007,-1.293c0.622,0 1.014,0.501 1.014,1.296c0,0.8 -0.388,1.294 -1.014,1.294zM32.8453,15.35902c-0.006,-0.098 0.017,-0.195 0.067,-0.279c0.049,-0.084 0.122,-0.151 0.21,-0.192c0.087,-0.042 0.185,-0.055 0.28,-0.04c0.095,0.016 0.183,0.06 0.254,0.127c0.07,0.067 0.119,0.154 0.14,0.249c0.02,0.095 0.013,0.195 -0.023,0.286c-0.035,0.091 -0.097,0.169 -0.177,0.224c-0.08,0.054 -0.174,0.084 -0.27,0.084c-0.062,0.003 -0.124,-0.006 -0.182,-0.028c-0.058,-0.021 -0.111,-0.055 -0.156,-0.098c-0.045,-0.043 -0.08,-0.094 -0.105,-0.152c-0.025,-0.057 -0.038,-0.119 -0.038,-0.181zM32.9553,16.48802h0.741v3.817h-0.741zM35.6113,16.48802h-0.716v3.817h0.743v-2.254c-0.001,-0.125 0.024,-0.249 0.073,-0.363c0.049,-0.115 0.121,-0.217 0.212,-0.302c0.091,-0.084 0.198,-0.149 0.314,-0.189c0.117,-0.04 0.24,-0.055 0.363,-0.044c0.139,0.001 0.278,0.016 0.415,0.046v-0.744c-0.109,-0.022 -0.22,-0.033 -0.332,-0.031c-0.215,-0.015 -0.43,0.04 -0.612,0.157c-0.183,0.116 -0.325,0.289 -0.405,0.492h-0.055zM37.7953,15.35902c-0.005,-0.098 0.018,-0.195 0.067,-0.279c0.05,-0.084 0.123,-0.151 0.21,-0.192c0.088,-0.042 0.185,-0.055 0.281,-0.04c0.095,0.016 0.183,0.06 0.253,0.127c0.071,0.067 0.119,0.154 0.14,0.249c0.021,0.095 0.013,0.195 -0.022,0.286c-0.036,0.091 -0.097,0.169 -0.177,0.224c-0.08,0.054 -0.174,0.084 -0.27,0.084c-0.062,0.003 -0.124,-0.006 -0.182,-0.028c-0.058,-0.021 -0.111,-0.055 -0.156,-0.098c-0.045,-0.043 -0.081,-0.094 -0.105,-0.152c-0.025,-0.057 -0.038,-0.119 -0.039,-0.181zM37.9063,16.48802h0.741v3.817h-0.741zM40.5613,16.48802h-0.715v3.817h0.743v-2.234c-0.013,-0.125 0.001,-0.252 0.041,-0.372c0.039,-0.119 0.104,-0.229 0.19,-0.321c0.085,-0.091 0.189,-0.163 0.305,-0.211c0.115,-0.047 0.239,-0.068 0.364,-0.063c0.549,0 0.812,0.305 0.812,0.918v2.283h0.744v-2.471c0.027,-0.185 0.012,-0.373 -0.042,-0.55c-0.055,-0.178 -0.148,-0.341 -0.273,-0.478c-0.125,-0.136 -0.279,-0.242 -0.45,-0.31c-0.172,-0.068 -0.356,-0.096 -0.539,-0.082c-0.234,-0.019 -0.468,0.036 -0.669,0.158c-0.202,0.122 -0.361,0.304 -0.455,0.522h-0.056z" fill="white"/><path id="Vector_30" fill-rule="evenodd" clip-rule="evenodd" d="M54.6333,9.99902c-1.367,0 -2.368,-0.685 -2.483,-1.729h-1.592c0.101,1.904 1.656,3.108 3.96,3.108c2.462,0 4.01,-1.233 4.01,-3.203c0,-1.54 -0.885,-2.407 -3.017,-2.918l-1.144,-0.285c-1.339,-0.335 -1.887,-0.773 -1.887,-1.517c0,-0.934 0.857,-1.575 2.11,-1.575c1.252,0 2.109,0.634 2.203,1.684h1.569c-0.05,-1.816 -1.555,-3.064 -3.75,-3.064c-2.218,0 -3.78,1.248 -3.78,3.064c0,1.467 0.885,2.371 2.793,2.838l1.346,0.329c1.347,0.335 1.915,0.824 1.915,1.641c0,0.942 -0.943,1.627 -2.253,1.627zM23.5893,8.35702h3.96l0.95,2.846h1.705l-3.75,-10.527h-1.743l-3.75,10.527h1.677zM27.1383,7.04402h-3.139l1.548,-4.617h0.043zM35.1443,11.28302c1.901,0 3.16,-1.532 3.16,-3.917c0,-2.379 -1.267,-3.919 -3.189,-3.919c-0.485,-0.015 -0.966,0.102 -1.391,0.341c-0.424,0.239 -0.777,0.59 -1.021,1.016h-0.028v-1.276h-1.505v10.214h1.555v-3.802h0.036c0.232,0.428 0.579,0.781 1.001,1.019c0.421,0.237 0.9,0.349 1.382,0.324zM34.7053,4.79002c1.209,0 2.001,1.022 2.001,2.576c0,1.567 -0.792,2.581 -2.001,2.582c-1.188,0 -1.987,-1.036 -1.987,-2.582c0,-1.533 0.799,-2.576 1.987,-2.576zM46.6403,7.36602c0,2.385 -1.259,3.917 -3.161,3.917c-0.481,0.025 -0.96,-0.087 -1.381,-0.324c-0.422,-0.238 -0.769,-0.591 -1.002,-1.019h-0.036v3.802h-1.554v-10.214h1.505v1.276h0.028c0.244,-0.426 0.596,-0.777 1.021,-1.016c0.425,-0.239 0.905,-0.356 1.391,-0.341c1.922,0 3.189,1.54 3.189,3.919zM45.0423,7.36602c0,-1.554 -0.792,-2.576 -2.001,-2.576c-1.188,0 -1.987,1.043 -1.987,2.576c0,1.546 0.799,2.582 1.987,2.582c1.209,-0.001 2.001,-1.015 2.001,-2.582zM61.8833,1.71102v1.817h1.441v1.247h-1.441v4.231c0,0.658 0.289,0.964 0.922,0.964c0.171,-0.003 0.342,-0.015 0.511,-0.036v1.24c-0.284,0.054 -0.574,0.078 -0.863,0.073c-1.534,0 -2.132,-0.584 -2.132,-2.073v-4.399h-1.101v-1.247h1.101v-1.817zM67.7503,3.43402c-2.189,0 -3.592,1.517 -3.592,3.932c0,2.421 1.39,3.932 3.592,3.932c2.203,0 3.593,-1.511 3.593,-3.932c0,-2.415 -1.397,-3.932 -3.593,-3.932zM67.7503,4.73202c1.26,0 2.009,0.977 2.009,2.634c0,1.663 -0.749,2.633 -2.009,2.633c-1.26,0 -2.008,-0.97 -2.008,-2.633c0,-1.649 0.748,-2.634 2.008,-2.634zM72.6253,3.52802h1.483v1.306h0.036c0.1,-0.408 0.335,-0.768 0.667,-1.021c0.332,-0.252 0.74,-0.381 1.154,-0.365c0.179,-0.001 0.358,0.019 0.532,0.058v1.474c-0.225,-0.07 -0.461,-0.102 -0.698,-0.095c-0.226,-0.009 -0.451,0.031 -0.659,0.118c-0.21,0.087 -0.398,0.219 -0.552,0.387c-0.154,0.168 -0.269,0.367 -0.341,0.585c-0.07,0.217 -0.093,0.448 -0.068,0.676v4.552h-1.554zM80.4043,11.29802c1.714,0 3.053,-0.956 3.262,-2.349h-1.476c-0.139,0.346 -0.383,0.639 -0.698,0.833c-0.316,0.195 -0.684,0.281 -1.052,0.246c-0.279,0.011 -0.557,-0.039 -0.817,-0.146c-0.259,-0.108 -0.493,-0.269 -0.685,-0.475c-0.193,-0.205 -0.341,-0.45 -0.433,-0.718c-0.092,-0.268 -0.126,-0.552 -0.102,-0.835v-0.095h5.349v-0.54c0,-2.327 -1.317,-3.785 -3.412,-3.785c-2.132,0 -3.506,1.561 -3.506,3.968c0,2.4 1.367,3.896 3.57,3.896zM82.1973,6.65802h-3.786c-0.001,-0.257 0.048,-0.511 0.145,-0.748c0.097,-0.237 0.239,-0.452 0.418,-0.633c0.18,-0.181 0.393,-0.325 0.627,-0.422c0.234,-0.097 0.485,-0.146 0.739,-0.145c0.25,-0.005 0.5,0.042 0.732,0.139c0.232,0.096 0.442,0.241 0.616,0.424c0.174,0.183 0.31,0.4 0.398,0.638c0.087,0.239 0.125,0.493 0.111,0.747zM84.7973,4.52802l0.849,-3.852h1.512l-1.03,3.852zM90.2573,3.44802c-1.879,0 -3.167,1.547 -3.167,3.918c0,2.371 1.288,3.917 3.182,3.917c0.49,0.025 0.977,-0.092 1.404,-0.337c0.428,-0.246 0.777,-0.609 1.007,-1.049h0.028v1.306h1.513v-10.527h-1.562v4.128h-0.029c-0.229,-0.43 -0.575,-0.786 -0.995,-1.026c-0.42,-0.24 -0.899,-0.355 -1.381,-0.33zM90.6823,9.94802c-1.21,0 -2.002,-1.007 -2.002,-2.582c0,-1.562 0.792,-2.576 2.002,-2.576c1.195,0 1.994,1.028 1.994,2.576c0,1.56 -0.799,2.582 -1.994,2.582zM95.5943,9.02202c0,-1.342 1.014,-2.153 2.814,-2.262l2.074,-0.117v-0.584c0,-0.853 -0.554,-1.335 -1.497,-1.335c-0.349,-0.047 -0.704,0.037 -0.997,0.236c-0.293,0.198 -0.505,0.499 -0.594,0.844h-1.454c0.043,-1.386 1.317,-2.37 3.088,-2.37c1.807,0 3.002,0.999 3.002,2.509v5.26h-1.49v-1.263h-0.036c-0.239,0.428 -0.586,0.784 -1.007,1.029c-0.421,0.245 -0.898,0.371 -1.383,0.365c-0.319,0.032 -0.641,-0.004 -0.945,-0.106c-0.304,-0.102 -0.583,-0.267 -0.821,-0.485c-0.237,-0.218 -0.426,-0.483 -0.556,-0.78c-0.131,-0.296 -0.198,-0.617 -0.198,-0.941zM100.4823,8.32902v-0.591l-1.864,0.116c-0.929,0.059 -1.455,0.467 -1.455,1.124c0,0.671 0.548,1.109 1.383,1.109c0.241,0.017 0.484,-0.016 0.713,-0.096c0.229,-0.08 0.44,-0.205 0.62,-0.369c0.181,-0.164 0.328,-0.363 0.431,-0.585c0.103,-0.222 0.162,-0.463 0.172,-0.708zM105.0973,3.52802h-1.483v7.675h1.555v-4.421c-0.029,-0.253 -0.003,-0.51 0.075,-0.752c0.078,-0.243 0.206,-0.466 0.375,-0.654c0.171,-0.188 0.378,-0.337 0.61,-0.437c0.232,-0.099 0.482,-0.148 0.733,-0.141c1.094,0 1.62,0.641 1.62,1.794v4.611h1.562v-4.918c0,-1.757 -0.958,-2.844 -2.628,-2.844c-0.49,-0.041 -0.98,0.071 -1.406,0.32c-0.426,0.249 -0.766,0.623 -0.977,1.073h-0.036z" fill="white"/></g></g></g></g><defs><clipPath id="clip0_1_1329"><rect width="1440" height="1000" fill="white"/></clipPath><clipPath id="clip1_1_1329"><rect x="-83.0936998705518" y="-340.2079801845398" width="1321" height="749" rx="10" fill="white"/></clipPath><clipPath id="clip3_1_1329"><rect width="125" height="38" fill="white" transform="translate(-8.093699870551802, -8.207980184539792)"/></clipPath></defs></svg>