<svg viewBox="0 0 100.98923131057069 25.89300000000003" fill="none" xmlns="http://www.w3.org/2000/svg" xmlns:xlink="http://www.w3.org/1999/xlink" id="995a7e45" x="0" y="0"><g id="Home Page" clip-path="url(#clip0_1_1329)"><g id="Hero"><g clip-path="url(#clip1_1_1329)"><g id="huawei-appgallery 1" clip-path="url(#clip2_1_1329)"><path id="Vector_3" d="M33.69402,8.422l-1.085,3.33h-1.395l3.549,-10.586h1.627l3.565,10.586h-1.442l-1.115,-3.33zM37.12002,7.354l-1.023,-3.047c-0.233,-0.691 -0.388,-1.319 -0.543,-1.931h-0.031c-0.155,0.628 -0.325,1.272 -0.527,1.915l-1.023,3.063z" fill="white"/><path id="Vector_4" d="M40.99502,6.631c0,-0.974 -0.032,-1.759 -0.063,-2.481h1.225l0.062,1.303h0.031c0.271,-0.468 0.661,-0.853 1.131,-1.113c0.47,-0.26 1,-0.385 1.535,-0.363c1.813,0 3.177,1.554 3.177,3.863c0,2.733 -1.643,4.084 -3.41,4.084c-0.453,0.02 -0.904,-0.08 -1.309,-0.289c-0.404,-0.209 -0.748,-0.521 -0.998,-0.904h-0.032v4.13h-1.348zM42.34302,8.657c0.004,0.19 0.025,0.38 0.063,0.565c0.113,0.463 0.376,0.874 0.747,1.167c0.371,0.293 0.828,0.452 1.298,0.451c1.442,0 2.279,-1.193 2.279,-2.937c0,-1.523 -0.791,-2.827 -2.232,-2.827c-0.482,0.014 -0.946,0.189 -1.319,0.499c-0.374,0.31 -0.634,0.737 -0.742,1.214c-0.055,0.183 -0.086,0.373 -0.093,0.565z" fill="white"/><path id="Vector_5" d="M49.13202,6.631c0,-0.974 -0.031,-1.759 -0.062,-2.481h1.222l0.062,1.303h0.031c0.271,-0.468 0.662,-0.853 1.131,-1.113c0.47,-0.26 1,-0.386 1.535,-0.363c1.814,0 3.177,1.554 3.177,3.863c0,2.733 -1.643,4.084 -3.41,4.084c-0.453,0.02 -0.904,-0.08 -1.309,-0.289c-0.404,-0.209 -0.748,-0.521 -0.998,-0.904h-0.032v4.13h-1.348zM50.48102,8.657c0.003,0.19 0.024,0.379 0.062,0.565c0.114,0.463 0.377,0.874 0.748,1.167c0.37,0.293 0.827,0.452 1.298,0.451c1.441,0 2.278,-1.193 2.278,-2.937c0,-1.523 -0.79,-2.827 -2.232,-2.827c-0.482,0.015 -0.945,0.19 -1.318,0.5c-0.372,0.31 -0.633,0.736 -0.74,1.213c-0.055,0.183 -0.086,0.373 -0.093,0.565z" fill="white"/><path id="Vector_6" d="M65.54502,11.281c-1.03,0.375 -2.115,0.571 -3.209,0.581c-0.713,0.07 -1.433,-0.019 -2.109,-0.261c-0.676,-0.243 -1.291,-0.632 -1.802,-1.141c-0.511,-0.509 -0.906,-1.125 -1.157,-1.806c-0.251,-0.68 -0.352,-1.408 -0.296,-2.132c0.016,-3.16 2.155,-5.466 5.657,-5.466c0.892,-0.022 1.779,0.144 2.604,0.487l-0.325,1.115c-0.727,-0.322 -1.515,-0.477 -2.308,-0.456c-2.542,0 -4.2,1.602 -4.2,4.257c0,2.686 1.597,4.272 4.03,4.272c0.612,0.033 1.225,-0.063 1.798,-0.283v-3.16h-2.121v-1.094h3.438z" fill="white"/><path id="Vector_7" d="M71.43602,11.751l-0.109,-0.958h-0.047c-0.266,0.359 -0.613,0.649 -1.012,0.846c-0.399,0.196 -0.838,0.294 -1.282,0.284c-0.295,0.022 -0.591,-0.018 -0.87,-0.118c-0.279,-0.1 -0.534,-0.258 -0.75,-0.463c-0.216,-0.205 -0.387,-0.453 -0.503,-0.729c-0.116,-0.276 -0.174,-0.573 -0.171,-0.873c0,-1.838 1.612,-2.844 4.51,-2.827v-0.155c0.031,-0.236 0.007,-0.475 -0.067,-0.7c-0.075,-0.226 -0.198,-0.43 -0.362,-0.6c-0.165,-0.169 -0.365,-0.299 -0.586,-0.378c-0.221,-0.08 -0.456,-0.108 -0.689,-0.081c-0.69,0.002 -1.366,0.198 -1.953,0.565l-0.312,-0.91c0.743,-0.454 1.597,-0.688 2.464,-0.676c2.294,0 2.852,1.586 2.852,3.11v2.844c-0.01,0.61 0.032,1.22 0.124,1.822zM71.23402,7.871c-1.488,-0.031 -3.177,0.236 -3.177,1.712c-0.014,0.176 0.009,0.353 0.069,0.518c0.059,0.166 0.153,0.316 0.275,0.442c0.122,0.125 0.27,0.222 0.433,0.284c0.162,0.062 0.336,0.088 0.51,0.076c0.396,0.011 0.786,-0.107 1.111,-0.336c0.326,-0.228 0.572,-0.556 0.702,-0.936c0.048,-0.143 0.074,-0.292 0.077,-0.443z" fill="white"/><path id="Vector_10" d="M81.60302,8.203c-0.03,0.352 0.016,0.705 0.134,1.037c0.118,0.332 0.307,0.634 0.551,0.885c0.245,0.251 0.54,0.445 0.867,0.569c0.325,0.123 0.674,0.174 1.021,0.148c0.712,0.023 1.421,-0.111 2.077,-0.393l0.233,0.989c-0.79,0.334 -1.64,0.495 -2.495,0.472c-2.308,0 -3.69,-1.539 -3.69,-3.832c0,-2.293 1.333,-4.099 3.519,-4.099c2.449,0 3.1,2.183 3.1,3.581c-0.003,0.215 -0.018,0.43 -0.047,0.644zM85.60202,7.213c0.016,-0.879 -0.357,-2.246 -1.891,-2.246c-1.379,0 -1.985,1.288 -2.092,2.246z" fill="white"/><path id="Vector_11" d="M88.20702,6.522c0,-0.895 -0.016,-1.664 -0.063,-2.371h1.194l0.047,1.492h0.062c0.128,-0.465 0.398,-0.876 0.772,-1.175c0.372,-0.299 0.829,-0.471 1.305,-0.49c0.131,-0.002 0.261,0.014 0.388,0.047v1.304c-0.154,-0.034 -0.309,-0.05 -0.465,-0.048c-0.466,0.019 -0.91,0.21 -1.246,0.537c-0.337,0.327 -0.544,0.767 -0.584,1.238c-0.038,0.212 -0.059,0.428 -0.062,0.644v4.051h-1.348z" fill="white"/><path id="Vector_12" d="M94.70202,4.15l1.642,4.492c0.171,0.506 0.357,1.1 0.481,1.555h0.031c0.14,-0.456 0.295,-1.037 0.481,-1.586l1.488,-4.461h1.441l-2.046,5.419c-0.976,2.607 -1.644,3.942 -2.573,4.758c-0.471,0.441 -1.049,0.75 -1.674,0.896l-0.341,-1.162c0.437,-0.146 0.842,-0.374 1.194,-0.673c0.496,-0.416 0.889,-0.943 1.147,-1.539c0.056,-0.103 0.092,-0.215 0.109,-0.33c-0.012,-0.125 -0.043,-0.247 -0.093,-0.362l-2.774,-7.005z" fill="white"/><path id="Vector_13" d="M31.38102,18.256v5.464h-0.696v-5.464z" fill="white"/><path id="Vector_14" d="M32.59702,18.256h0.696v4.872h2.304v0.592h-3z" fill="white"/><path id="Vector_15" d="M39.16402,21.158h-2.096v1.97h2.336v0.592h-3.032v-5.464h2.912v0.591h-2.216v1.727h2.096z" fill="white"/><path id="Vector_16" d="M42.00402,18.256h0.697v2.635h0.023c0.144,-0.21 0.288,-0.405 0.424,-0.583l1.648,-2.051h0.863l-1.951,2.318l2.104,3.145h-0.824l-1.776,-2.683l-0.512,0.6v2.086h-0.696z" fill="white"/><path id="Vector_17" d="M49.13302,21.158h-2.096v1.97h2.336v0.592h-3.032v-5.464h2.912v0.591h-2.216v1.727h2.096z" fill="white"/><path id="Vector_18" d="M52.86002,19.01c-0.315,-0.171 -0.667,-0.26 -1.024,-0.259c-0.736,0 -1.016,0.446 -1.016,0.822c0,0.511 0.328,0.762 1.072,1.053c0.912,0.357 1.376,0.802 1.376,1.605c0.001,0.387 -0.143,0.761 -0.403,1.045c-0.259,0.284 -0.615,0.458 -0.997,0.487l-0.215,0.365c0.15,0.016 0.289,0.086 0.392,0.198c0.103,0.111 0.163,0.257 0.169,0.41c0,0.47 -0.408,0.657 -0.816,0.657c-0.2,0 -0.397,-0.047 -0.575,-0.138l0.119,-0.366c0.136,0.071 0.288,0.108 0.441,0.106c0.184,0 0.336,-0.073 0.336,-0.243c0,-0.219 -0.25,-0.308 -0.624,-0.349l0.32,-0.6h-0.032c-0.48,0.006 -0.954,-0.114 -1.376,-0.349l0.176,-0.591c0.377,0.229 0.808,0.352 1.248,0.356c0.712,0 1.128,-0.379 1.128,-0.932c0,-0.511 -0.288,-0.802 -1.016,-1.086c-0.88,-0.316 -1.424,-0.779 -1.424,-1.549c0,-0.851 0.696,-1.483 1.746,-1.483c0.414,-0.014 0.824,0.078 1.192,0.267z" fill="white"/><path id="Vector_19" d="M54.22102,18.256h2.904v0.592h-2.208v1.816h2.04v0.584h-2.04v2.472h-0.695z" fill="white"/><path id="Vector_20" d="M60.90702,21.158h-2.096v1.97h2.336v0.592h-3.032v-5.464h2.911v0.591h-2.215v1.727h2.096z" fill="white"/><path id="Vector_21" d="M62.05202,18.33c0.49,-0.075 0.985,-0.113 1.481,-0.114c0.786,-0.064 1.567,0.179 2.182,0.681c0.259,0.251 0.461,0.557 0.593,0.895c0.131,0.338 0.188,0.701 0.168,1.064c0.018,0.389 -0.041,0.777 -0.174,1.142c-0.134,0.365 -0.338,0.699 -0.602,0.981c-0.662,0.568 -1.516,0.852 -2.381,0.79c-0.422,0.003 -0.844,-0.018 -1.264,-0.063zM62.74902,23.161c0.233,0.032 0.468,0.046 0.703,0.04c0.309,0.036 0.623,0.001 0.917,-0.103c0.294,-0.103 0.561,-0.273 0.782,-0.496c0.221,-0.222 0.389,-0.493 0.492,-0.79c0.103,-0.298 0.139,-0.615 0.105,-0.929c0.008,-1.289 -0.712,-2.108 -2.183,-2.108c-0.274,-0.004 -0.547,0.02 -0.816,0.073z" fill="white"/><path id="Vector_22" d="M67.34002,17.462c0.001,-0.107 0.044,-0.209 0.119,-0.285c0.075,-0.076 0.175,-0.119 0.281,-0.12c0.103,0.003 0.201,0.048 0.273,0.123c0.072,0.076 0.111,0.177 0.111,0.282c0.002,0.053 -0.007,0.107 -0.026,0.157c-0.018,0.05 -0.047,0.096 -0.083,0.134c-0.037,0.039 -0.081,0.069 -0.13,0.09c-0.048,0.021 -0.1,0.032 -0.153,0.032c-0.053,0 -0.105,-0.011 -0.154,-0.032c-0.049,-0.021 -0.093,-0.051 -0.129,-0.09c-0.037,-0.038 -0.065,-0.084 -0.084,-0.134c-0.019,-0.05 -0.027,-0.104 -0.025,-0.157zM68.07602,18.256v5.464h-0.696v-5.464z" fill="white"/><path id="Vector_23" d="M69.29202,23.72v-5.464h0.76l1.728,2.765c0.361,0.569 0.684,1.162 0.968,1.775l0.015,-0.008c-0.062,-0.729 -0.08,-1.394 -0.08,-2.245v-2.286h0.657v5.464h-0.704l-1.713,-2.773c-0.372,-0.587 -0.708,-1.196 -1.007,-1.824l-0.024,0.008c0.04,0.689 0.056,1.346 0.056,2.253v2.335z" fill="white"/><path id="Vector_24" d="M6.68202,0c-4.893,0 -6.682,1.813 -6.682,6.77v10.525c0,4.958 1.789,6.771 6.682,6.771h10.383c4.892,0 6.685,-1.813 6.685,-6.771v-10.525c0,-4.957 -1.79,-6.77 -6.682,-6.77z" fill="#C51532"/><path id="Vector_25" d="M4.70302,12.036h0.63v3.147h-0.63v-1.278h-1.422v1.278h-0.63v-3.147h0.63v1.269h1.422zM8.25202,13.837c0,0.511 -0.249,0.785 -0.706,0.785c-0.456,0 -0.709,-0.281 -0.709,-0.807v-1.777h-0.63v1.799c-0.022,0.184 -0.003,0.371 0.056,0.547c0.059,0.175 0.155,0.336 0.283,0.469c0.127,0.133 0.282,0.236 0.454,0.301c0.172,0.064 0.355,0.09 0.538,0.073c0.185,0.016 0.372,-0.01 0.546,-0.076c0.174,-0.067 0.331,-0.172 0.46,-0.308c0.129,-0.136 0.226,-0.299 0.285,-0.478c0.058,-0.179 0.076,-0.37 0.053,-0.557v-1.774h-0.63zM15.53402,14.2l-0.705,-2.164h-0.514l-0.705,2.164l-0.686,-2.162h-0.671l1.083,3.145h0.522l0.706,-2.067l0.706,2.067h0.526l1.08,-3.145h-0.653zM18.00402,13.828h1.146v-0.573h-1.146v-0.644h1.664v-0.573h-2.286v3.142h2.345v-0.573h-1.723zM20.47802,15.178h0.624v-3.142h-0.624zM10.12502,14.525l-0.283,0.656h-0.643l1.368,-3.145h0.556l1.363,3.145h-0.661l-0.279,-0.656zM10.35902,13.956h0.953l-0.478,-1.126z" fill="white"/><path id="Vector_26" d="M11.87502,8.029c-1.048,-0.001 -2.053,-0.423 -2.794,-1.174c-0.741,-0.751 -1.158,-1.769 -1.159,-2.831h0.561c0,0.912 0.358,1.787 0.994,2.432c0.637,0.645 1.501,1.008 2.401,1.008c0.9,0 1.764,-0.363 2.4,-1.008c0.637,-0.645 0.995,-1.52 0.995,-2.432h0.561c-0.001,1.063 -0.419,2.082 -1.161,2.833c-0.743,0.751 -1.749,1.173 -2.798,1.172z" fill="white"/></g></g></g></g><defs><clipPath id="clip0_1_1329"><rect width="1440" height="1000" fill="white"/></clipPath><clipPath id="clip1_1_1329"><rect x="-373.1899843447146" y="-338.967" width="1321" height="749" rx="10" fill="white"/></clipPath><clipPath id="clip2_1_1329"><rect width="125" height="38" fill="white" transform="translate(-8.189984344714617, -6.9669999999999845)"/></clipPath></defs></svg>