<svg viewBox="0 0 99.2476 25.3005" fill="none" xmlns="http://www.w3.org/2000/svg" xmlns:xlink="http://www.w3.org/1999/xlink" id="f352bf30" x="0" y="0"><g id="Home Page" clip-path="url(#clip0_1_1329)"><g id="Hero"><g clip-path="url(#clip1_1_1329)"><g id="googleplay 1" clip-path="url(#clip4_1_1329)"><path id="Vector_32" d="M51.5159,5.8416c-0.685,0.004 -1.353,0.213 -1.921,0.601c-0.567,0.388 -1.009,0.938 -1.268,1.58c-0.26,0.642 -0.326,1.348 -0.19,2.028c0.136,0.68 0.467,1.304 0.953,1.793c0.485,0.49 1.103,0.822 1.775,0.956c0.672,0.134 1.368,0.064 2,-0.203c0.632,-0.266 1.172,-0.716 1.552,-1.293c0.38,-0.578 0.583,-1.256 0.583,-1.95c0.006,-0.464 -0.079,-0.925 -0.253,-1.356c-0.173,-0.43 -0.429,-0.821 -0.755,-1.148c-0.325,-0.328 -0.711,-0.586 -1.137,-0.759c-0.426,-0.173 -0.881,-0.258 -1.339,-0.249zM51.5159,11.5066c-0.422,0.03 -0.844,-0.069 -1.209,-0.285c-0.366,-0.215 -0.659,-0.537 -0.841,-0.924c-0.182,-0.387 -0.245,-0.821 -0.181,-1.244c0.065,-0.424 0.253,-0.818 0.542,-1.131c0.289,-0.314 0.664,-0.532 1.076,-0.626c0.413,-0.094 0.844,-0.06 1.238,0.097c0.393,0.158 0.73,0.432 0.968,0.786c0.237,0.355 0.364,0.774 0.363,1.203c0.009,0.268 -0.035,0.535 -0.129,0.786c-0.094,0.251 -0.236,0.48 -0.418,0.675c-0.182,0.195 -0.4,0.351 -0.642,0.46c-0.242,0.109 -0.503,0.168 -0.767,0.175zM43.9309,5.8416c-0.684,0.004 -1.353,0.213 -1.92,0.601c-0.568,0.388 -1.009,0.938 -1.268,1.58c-0.26,0.642 -0.326,1.348 -0.19,2.028c0.136,0.68 0.467,1.304 0.953,1.793c0.485,0.49 1.103,0.822 1.775,0.956c0.671,0.134 1.367,0.064 2,-0.203c0.632,-0.266 1.172,-0.716 1.552,-1.293c0.38,-0.578 0.583,-1.256 0.583,-1.95c0.006,-0.464 -0.08,-0.925 -0.253,-1.356c-0.173,-0.43 -0.43,-0.821 -0.755,-1.148c-0.325,-0.328 -0.712,-0.586 -1.137,-0.759c-0.426,-0.173 -0.881,-0.258 -1.34,-0.249zM43.9309,11.5066c-0.422,0.03 -0.843,-0.069 -1.208,-0.285c-0.366,-0.215 -0.659,-0.537 -0.841,-0.924c-0.182,-0.387 -0.245,-0.821 -0.181,-1.244c0.065,-0.424 0.253,-0.818 0.542,-1.131c0.289,-0.314 0.664,-0.532 1.076,-0.626c0.413,-0.094 0.844,-0.06 1.237,0.097c0.394,0.158 0.731,0.432 0.969,0.786c0.237,0.355 0.364,0.774 0.363,1.203c0.009,0.268 -0.035,0.535 -0.129,0.786c-0.094,0.251 -0.236,0.48 -0.418,0.675c-0.182,0.195 -0.4,0.351 -0.642,0.46c-0.242,0.109 -0.503,0.168 -0.768,0.175zM34.9119,6.9176v1.492h3.513c-0.041,0.705 -0.325,1.373 -0.801,1.888c-0.351,0.366 -0.773,0.653 -1.24,0.842c-0.468,0.188 -0.969,0.275 -1.472,0.254c-1.003,-0.05 -1.949,-0.489 -2.642,-1.226c-0.693,-0.738 -1.08,-1.717 -1.08,-2.735c0,-1.018 0.387,-1.997 1.08,-2.735c0.693,-0.737 1.639,-1.176 2.642,-1.226c0.986,-0.016 1.937,0.365 2.646,1.058l1.044,-1.048c-0.491,-0.49 -1.073,-0.876 -1.713,-1.133c-0.641,-0.258 -1.325,-0.383 -2.014,-0.368c-0.725,-0.031 -1.449,0.087 -2.128,0.348c-0.68,0.26 -1.3,0.656 -1.824,1.166c-0.524,0.509 -0.941,1.121 -1.225,1.797c-0.285,0.677 -0.432,1.405 -0.432,2.141c0,0.736 0.147,1.464 0.432,2.141c0.284,0.676 0.701,1.288 1.225,1.797c0.524,0.509 1.144,0.906 1.824,1.166c0.679,0.261 1.403,0.379 2.128,0.348c0.692,0.024 1.382,-0.1 2.024,-0.363c0.642,-0.264 1.222,-0.661 1.703,-1.166c0.854,-0.95 1.308,-2.2 1.267,-3.484c0.007,-0.317 -0.018,-0.633 -0.074,-0.944zM71.8079,8.0796c-0.208,-0.636 -0.603,-1.192 -1.134,-1.592c-0.529,-0.4 -1.168,-0.626 -1.829,-0.646c-0.445,0.003 -0.885,0.098 -1.293,0.278c-0.408,0.18 -0.776,0.442 -1.082,0.771c-0.305,0.328 -0.542,0.715 -0.696,1.139c-0.154,0.423 -0.222,0.874 -0.199,1.324c-0.01,0.462 0.072,0.921 0.241,1.35c0.169,0.429 0.421,0.819 0.742,1.146c0.321,0.328 0.704,0.587 1.125,0.762c0.422,0.174 0.874,0.261 1.33,0.254c0.571,0.003 1.133,-0.138 1.638,-0.41c0.504,-0.272 0.934,-0.666 1.251,-1.147l-1.184,-0.803c-0.18,0.293 -0.431,0.534 -0.73,0.699c-0.299,0.166 -0.635,0.25 -0.975,0.245c-0.353,0.013 -0.701,-0.081 -1,-0.272c-0.3,-0.19 -0.535,-0.467 -0.677,-0.795l4.659,-1.935zM67.0839,9.2496c-0.021,-0.257 0.009,-0.516 0.09,-0.761c0.081,-0.244 0.211,-0.47 0.381,-0.662c0.17,-0.192 0.378,-0.346 0.609,-0.454c0.232,-0.107 0.483,-0.166 0.737,-0.171c0.263,-0.018 0.525,0.044 0.754,0.176c0.229,0.133 0.414,0.331 0.532,0.57zM63.3579,12.6486h1.462v-10.319h-1.5zM60.8699,6.6256h-0.056c-0.236,-0.26 -0.524,-0.465 -0.846,-0.601c-0.322,-0.135 -0.669,-0.198 -1.017,-0.183c-0.92,0 -1.801,0.37 -2.451,1.029c-0.65,0.658 -1.015,1.552 -1.015,2.483c0,0.932 0.365,1.825 1.015,2.484c0.65,0.658 1.531,1.028 2.451,1.028c0.349,0.014 0.698,-0.051 1.02,-0.19c0.322,-0.138 0.61,-0.347 0.843,-0.612h0.056v0.51c0.039,0.265 0.02,0.535 -0.057,0.791c-0.077,0.257 -0.21,0.492 -0.389,0.69c-0.179,0.197 -0.399,0.351 -0.644,0.451c-0.245,0.1 -0.51,0.143 -0.773,0.126c-0.383,-0.003 -0.755,-0.125 -1.067,-0.349c-0.312,-0.225 -0.548,-0.542 -0.676,-0.907l-1.323,0.567c0.249,0.615 0.674,1.141 1.221,1.509c0.546,0.369 1.188,0.563 1.845,0.558c1.788,0 3.298,-1.057 3.298,-3.653v-6.317h-1.472zM59.1179,11.4786c-0.533,-0.036 -1.032,-0.276 -1.397,-0.672c-0.365,-0.395 -0.568,-0.916 -0.568,-1.457c0,-0.542 0.203,-1.063 0.568,-1.458c0.365,-0.395 0.864,-0.635 1.397,-0.671c0.263,0.011 0.521,0.077 0.758,0.192c0.238,0.115 0.45,0.277 0.624,0.478c0.174,0.2 0.306,0.433 0.389,0.686c0.083,0.253 0.114,0.521 0.093,0.787c0.021,0.267 -0.011,0.536 -0.097,0.79c-0.085,0.254 -0.221,0.488 -0.399,0.686c-0.179,0.199 -0.395,0.358 -0.637,0.468c-0.242,0.109 -0.503,0.168 -0.768,0.171zM78.9819,2.3296h-3.643v10.319h1.519v-3.908h2.124c0.43,0.023 0.86,-0.042 1.264,-0.193c0.404,-0.15 0.774,-0.382 1.086,-0.682c0.314,-0.3 0.562,-0.662 0.732,-1.062c0.171,-0.401 0.258,-0.833 0.258,-1.269c0,-0.436 -0.087,-0.868 -0.258,-1.268c-0.17,-0.401 -0.418,-0.762 -0.732,-1.062c-0.312,-0.3 -0.682,-0.533 -1.086,-0.683c-0.404,-0.15 -0.834,-0.216 -1.264,-0.192zM78.9819,7.3046h-2.161v-3.54h2.161c0.241,-0.018 0.481,0.015 0.709,0.096c0.227,0.081 0.435,0.208 0.612,0.374c0.176,0.166 0.317,0.367 0.413,0.591c0.096,0.224 0.146,0.465 0.146,0.709c0,0.244 -0.05,0.486 -0.146,0.709c-0.096,0.224 -0.237,0.425 -0.413,0.591c-0.177,0.166 -0.385,0.294 -0.612,0.375c-0.228,0.081 -0.468,0.113 -0.709,0.095zM88.3739,5.8226c-0.554,-0.033 -1.106,0.098 -1.588,0.378c-0.481,0.281 -0.872,0.697 -1.123,1.199l1.35,0.576c0.133,-0.251 0.335,-0.457 0.582,-0.592c0.247,-0.134 0.528,-0.191 0.807,-0.163c0.19,-0.02 0.383,-0.001 0.566,0.055c0.183,0.055 0.353,0.147 0.502,0.27c0.147,0.123 0.27,0.274 0.361,0.445c0.09,0.171 0.146,0.358 0.165,0.551v0.104c-0.49,-0.258 -1.033,-0.394 -1.585,-0.396c-1.453,0 -2.934,0.812 -2.934,2.322c0.014,0.319 0.09,0.632 0.226,0.92c0.135,0.288 0.326,0.546 0.562,0.758c0.235,0.212 0.51,0.374 0.809,0.477c0.298,0.103 0.613,0.144 0.928,0.121c0.388,0.028 0.777,-0.051 1.125,-0.229c0.347,-0.178 0.641,-0.448 0.85,-0.782v0.812h1.462v-3.974c0.019,-1.832 -1.322,-2.852 -3.065,-2.852zM88.1879,11.4876c-0.494,0 -1.192,-0.255 -1.192,-0.878c0,-0.793 0.866,-1.105 1.611,-1.105c0.476,-0.019 0.948,0.088 1.37,0.312c-0.053,0.448 -0.264,0.861 -0.592,1.166c-0.328,0.305 -0.752,0.481 -1.197,0.496zM96.8059,6.0396l-1.743,4.476h-0.055l-1.808,-4.476h-1.63l2.711,6.251l-1.509,3.483h1.584l4.136,-9.734zM83.1189,12.6486h1.519v-10.319h-1.519z" fill="white"/><path id="Vector_33" d="M0.9419,0.8846c-0.307,0.368 -0.463,0.841 -0.438,1.322v20.885c-0.031,0.481 0.126,0.956 0.438,1.321l0.066,0.076l11.543,-11.698v-0.283l-11.543,-11.689z" fill="url(#paint1_linear_1_1329)"/><path id="Vector_34" d="M16.3709,16.6906l-3.82,-3.899v-0.283l3.82,-3.9l0.084,0.057l4.575,2.625c1.304,0.745 1.304,1.973 0,2.728l-4.556,2.625z" fill="url(#paint2_linear_1_1329)"/><path id="Vector_35" d="M16.4829,16.6336l-3.932,-3.984l-11.609,11.763c0.263,0.238 0.6,0.375 0.953,0.387c0.352,0.012 0.697,-0.102 0.976,-0.32z" fill="url(#paint3_linear_1_1329)"/><path id="Vector_36" d="M16.4829,8.6646l-13.612,-7.836c-0.277,-0.222 -0.622,-0.338 -0.975,-0.328c-0.353,0.011 -0.69,0.147 -0.954,0.385l11.609,11.764z" fill="url(#paint4_linear_1_1329)"/><path id="Vector_37" opacity="0.2" d="M16.3709,16.5486l-13.5,7.789c-0.269,0.205 -0.596,0.316 -0.932,0.316c-0.336,0 -0.663,-0.111 -0.932,-0.316l-0.065,0.066l0.065,0.076c0.269,0.205 0.596,0.316 0.932,0.316c0.336,0 0.663,-0.111 0.932,-0.316l13.612,-7.846z" fill="#191919"/><path id="Vector_38" opacity="0.12" d="M0.9419,24.2816c-0.299,-0.375 -0.446,-0.851 -0.41,-1.332v0.142c-0.032,0.482 0.126,0.957 0.438,1.322l0.065,-0.066z" fill="#191919"/><path id="Vector_39" opacity="0.12" d="M21.0299,13.8766l-4.659,2.672l0.084,0.085l4.575,-2.625c0.27,-0.116 0.504,-0.303 0.678,-0.542c0.174,-0.24 0.281,-0.522 0.31,-0.817c-0.059,0.268 -0.178,0.519 -0.35,0.732c-0.172,0.214 -0.39,0.383 -0.638,0.495z" fill="#191919"/><path id="Vector_40" opacity="0.25" d="M2.8709,0.9606l18.159,10.461c0.248,0.112 0.467,0.282 0.638,0.495c0.172,0.213 0.292,0.464 0.35,0.733c-0.029,-0.296 -0.136,-0.578 -0.31,-0.818c-0.174,-0.239 -0.408,-0.426 -0.678,-0.542l-18.159,-10.461c-1.295,-0.755 -2.366,-0.132 -2.366,1.378v0.142c0.028,-1.511 1.071,-2.134 2.366,-1.388z" fill="white"/><path id="Vector_41" d="M30.1789,21.0056h-0.671v-1.813h0.671z" fill="white" stroke="white" stroke-width="0.2" stroke-miterlimit="10"/><path id="Vector_42" d="M31.3619,24.9236v-5.731h1.78c0.384,-0.018 0.767,0.043 1.126,0.181c0.359,0.138 0.686,0.35 0.961,0.622c0.504,0.569 0.782,1.307 0.782,2.072c0,0.765 -0.278,1.503 -0.782,2.073c-0.276,0.268 -0.604,0.476 -0.963,0.611c-0.359,0.135 -0.742,0.193 -1.124,0.172zM32.0889,24.2156h1.053c0.28,0.018 0.56,-0.024 0.822,-0.125c0.262,-0.1 0.499,-0.256 0.697,-0.457c0.198,-0.202 0.35,-0.443 0.448,-0.709c0.098,-0.266 0.139,-0.55 0.12,-0.833c0.028,-0.288 -0.007,-0.579 -0.101,-0.852c-0.094,-0.274 -0.246,-0.523 -0.444,-0.731c-0.198,-0.208 -0.439,-0.37 -0.705,-0.475c-0.266,-0.105 -0.552,-0.15 -0.837,-0.133h-1.053z" fill="white" stroke="white" stroke-width="0.2" stroke-miterlimit="10"/><path id="Vector_43" d="M40.2879,19.9006h-2.581v1.822h2.33v0.69h-2.33v1.822h2.581v0.689h-3.307v-5.731h3.307z" fill="white" stroke="white" stroke-width="0.2" stroke-miterlimit="10"/><path id="Vector_44" d="M41.3319,24.9236v-5.731h0.885l2.795,4.475v-1.114v-3.361h0.727v5.731h-0.755l-2.888,-4.721v1.114v3.607z" fill="white" stroke="white" stroke-width="0.2" stroke-miterlimit="10"/><path id="Vector_45" d="M48.1149,24.9236l2.133,-5.75h0.83l2.133,5.75h-0.81l-0.541,-1.558h-2.385l-0.559,1.558zM49.7169,22.6756h1.864l-0.932,-2.596z" fill="white" stroke="white" stroke-width="0.2" stroke-miterlimit="10"/><path id="Vector_46" d="M53.9469,24.9236v-5.731h0.736v5.042h2.451v0.689z" fill="white" stroke="white" stroke-width="0.2" stroke-miterlimit="10"/><path id="Vector_47" d="M57.9259,24.9236v-5.731h0.726v5.731z" fill="white" stroke="white" stroke-width="0.2" stroke-miterlimit="10"/><path id="Vector_48" d="M59.9569,24.9236v-5.731h0.931l2.795,4.475v-1.114v-3.361h0.727v5.731h-0.754l-2.889,-4.721v1.114v3.607z" fill="white" stroke="white" stroke-width="0.2" stroke-miterlimit="10"/></g></g></g></g><defs><linearGradient id="paint1_linear_1_1329" x1="300.312" y1="495.223" x2="284.47" y2="510.856" gradientUnits="userSpaceOnUse"><stop stop-color="#00A0FF"/><stop offset="0.01" stop-color="#00A1FF"/><stop offset="0.26" stop-color="#00BEFF"/><stop offset="0.51" stop-color="#00D2FF"/><stop offset="0.76" stop-color="#00DFFF"/><stop offset="1" stop-color="#00E3FF"/></linearGradient><linearGradient id="paint2_linear_1_1329" x1="311.52" y1="505.883" x2="288.982" y2="505.883" gradientUnits="userSpaceOnUse"><stop stop-color="#FFE000"/><stop offset="0.41" stop-color="#FFBD00"/><stop offset="0.78" stop-color="#FFA500"/><stop offset="1" stop-color="#FF9C00"/></linearGradient><linearGradient id="paint3_linear_1_1329" x1="303.134" y1="508.054" x2="281.648" y2="529.249" gradientUnits="userSpaceOnUse"><stop stop-color="#FF3A44"/><stop offset="1" stop-color="#C31162"/></linearGradient><linearGradient id="paint4_linear_1_1329" x1="286.801" y1="487.17" x2="296.393" y2="496.635" gradientUnits="userSpaceOnUse"><stop stop-color="#32A071"/><stop offset="0.07" stop-color="#2DA771"/><stop offset="0.48" stop-color="#15CF74"/><stop offset="0.8" stop-color="#06E775"/><stop offset="1" stop-color="#00F076"/></linearGradient><clipPath id="clip0_1_1329"><rect width="1440" height="1000" fill="white"/></clipPath><clipPath id="clip1_1_1329"><rect x="-228.7851" y="-338.2334" width="1321" height="749" rx="10" fill="white"/></clipPath><clipPath id="clip4_1_1329"><rect width="125" height="38" fill="white" transform="translate(-8.7851, -6.233400000000017)"/></clipPath></defs></svg>