<svg viewBox="0 0 262 47" fill="none" xmlns="http://www.w3.org/2000/svg">
<mask id="mask0_69_1406" style="mask-type:alpha" maskUnits="userSpaceOnUse" x="0" y="0" width="262" height="47">
<path opacity="0.943" fill-rule="evenodd" clip-rule="evenodd" d="M193.413 2.65775C195.377 2.65775 197.341 2.65775 199.304 2.65775C199.304 13.1955 199.304 23.7331 199.304 34.2708C197.341 34.2708 195.377 34.2708 193.413 34.2708C193.413 23.7331 193.413 13.1955 193.413 2.65775Z" fill="white"/>
<path opacity="0.948" fill-rule="evenodd" clip-rule="evenodd" d="M4.06738 3.77679C6.03097 3.77679 7.99456 3.77679 9.95814 3.77679C9.91141 7.32169 9.95817 10.8653 10.0984 14.4077C13.3829 11.5851 16.9828 11.1655 20.8981 13.1488C22.8182 14.6003 23.987 16.512 24.4045 18.8839C24.5448 24.0121 24.5915 29.1411 24.5448 34.2708C22.5812 34.2708 20.6176 34.2708 18.654 34.2708C18.7008 29.5141 18.654 24.758 18.5138 20.003C17.7542 18.3174 16.4451 17.3849 14.5866 17.2054C12.2739 17.4249 10.7778 18.6372 10.0984 20.8423C9.95817 25.3175 9.91141 29.7938 9.95814 34.2708C7.99456 34.2708 6.03097 34.2708 4.06738 34.2708C4.06738 24.1062 4.06738 13.9415 4.06738 3.77679Z" fill="white"/>
<path opacity="0.967" fill-rule="evenodd" clip-rule="evenodd" d="M204.353 10.7708C206.223 10.7708 208.093 10.7708 209.964 10.7708C209.964 18.6042 209.964 26.4375 209.964 34.2708C208.093 34.2708 206.223 34.2708 204.353 34.2708C204.306 29.2343 204.353 24.1985 204.494 19.1637C206.155 17.9386 207.792 16.6797 209.402 15.3869C207.722 15.2472 206.039 15.2005 204.353 15.247C204.353 13.755 204.353 12.2629 204.353 10.7708Z" fill="white"/>
<path opacity="0.943" fill-rule="evenodd" clip-rule="evenodd" d="M230.441 10.7708C232.404 10.7708 234.368 10.7708 236.332 10.7708C236.374 19.2233 236.28 27.0567 236.051 34.2708C234.181 34.2708 232.311 34.2708 230.441 34.2708C230.347 29.2318 230.441 24.196 230.721 19.1637C232.311 17.9048 233.9 16.6458 235.49 15.3869C233.81 15.2472 232.127 15.2005 230.441 15.247C230.441 13.755 230.441 12.2629 230.441 10.7708Z" fill="white"/>
<path opacity="0.953" fill-rule="evenodd" clip-rule="evenodd" d="M37.729 11.8899C45.5533 11.7664 49.8544 15.5898 50.6325 23.3601C50.5574 24.2043 50.4637 25.0436 50.352 25.878C44.928 25.8314 39.5046 25.878 34.0823 26.0179C35.8602 29.2542 38.5716 30.3732 42.2172 29.375C43.2001 28.8384 44.135 28.2325 45.0223 27.5566C46.5646 28.3721 48.0608 29.2578 49.5105 30.2143C48.1539 32.2901 46.284 33.6889 43.9002 34.4107C37.8959 36.0521 33.0803 34.42 29.4539 29.5149C26.8167 23.7996 27.705 18.7172 32.1187 14.2679C33.8531 13.0743 35.7233 12.2817 37.729 11.8899ZM38.0095 17.2054C41.2901 16.7883 43.5342 18.0939 44.7418 21.122C41.1936 21.4015 37.6403 21.4948 34.0823 21.4018C34.6226 19.2779 35.9317 17.8791 38.0095 17.2054Z" fill="white"/>
<path opacity="0.956" fill-rule="evenodd" clip-rule="evenodd" d="M64.658 11.8899C67.6833 11.5117 70.0677 12.5375 71.8111 14.9672C74.3643 12.18 77.4968 11.2941 81.2082 12.3095C84.1632 13.4001 85.8931 15.4983 86.3977 18.6042C86.538 23.8255 86.5848 29.0477 86.538 34.2708C84.6678 34.2708 82.7979 34.2708 80.9277 34.2708C81.0433 29.41 80.903 24.5606 80.507 19.7232C80.0093 18.1552 78.9341 17.4092 77.2811 17.4851C75.1402 17.4281 73.8779 18.4539 73.4941 20.5625C73.3539 25.131 73.307 29.7003 73.3539 34.2708C71.3903 34.2708 69.4267 34.2708 67.4631 34.2708C67.51 29.4206 67.4631 24.5715 67.3229 19.7232C66.7969 18.0789 65.6749 17.3329 63.9567 17.4851C62.0173 17.4592 60.8018 18.3918 60.3101 20.2827C60.1698 24.9445 60.123 29.6072 60.1698 34.2708C58.2062 34.2708 56.2426 34.2708 54.2791 34.2708C54.2791 26.997 54.2791 19.7232 54.2791 12.4494C56.2426 12.4494 58.2062 12.4494 60.1698 12.4494C60.1244 13.0166 60.1712 13.5761 60.3101 14.128C61.5334 12.8888 62.9828 12.1427 64.658 11.8899Z" fill="white"/>
<path opacity="0.954" fill-rule="evenodd" clip-rule="evenodd" d="M100.003 11.8899C106.185 11.4952 110.253 14.1996 112.205 20.003C112.666 21.8657 112.713 23.7308 112.345 25.5982C106.924 25.8312 101.501 25.9711 96.0756 26.0178C97.877 29.2606 100.589 30.3796 104.21 29.375C105.289 28.9777 106.224 28.3715 107.016 27.5565C108.418 28.3491 109.821 29.1419 111.223 29.9345C111.49 30.1354 111.537 30.3684 111.363 30.6339C108.12 34.3234 104.052 35.6755 99.1612 34.6905C93.3271 33.2525 90.2415 29.5221 89.9043 23.5C90.2502 16.957 93.6163 13.087 100.003 11.8899ZM100.003 17.2053C103.294 16.7927 105.538 18.0983 106.735 21.122C103.182 21.495 99.6288 21.495 96.0756 21.122C96.7443 19.1494 98.0535 17.8439 100.003 17.2053Z" fill="white"/>
<path opacity="0.947" fill-rule="evenodd" clip-rule="evenodd" d="M126.932 11.8899C132.306 11.5183 135.532 13.9429 136.61 19.1637C136.75 24.1985 136.797 29.2343 136.75 34.2708C134.786 34.2708 132.823 34.2708 130.859 34.2708C130.906 29.6072 130.859 24.9445 130.719 20.2827C130.11 18.3913 128.802 17.3655 126.792 17.2053C124.376 17.2906 122.88 18.5029 122.303 20.8422C122.163 25.3175 122.116 29.7938 122.163 34.2708C120.2 34.2708 118.236 34.2708 116.272 34.2708C116.272 26.997 116.272 19.7232 116.272 12.4494C118.236 12.4494 120.2 12.4494 122.163 12.4494C122.117 13.1087 122.164 13.7615 122.303 14.4077C123.57 13.0076 125.113 12.1683 126.932 11.8899Z" fill="white"/>
<path opacity="0.947" fill-rule="evenodd" clip-rule="evenodd" d="M149.653 11.8899C152.778 11.5763 155.443 12.5088 157.648 14.6875C157.787 13.9473 157.834 13.2012 157.788 12.4494C159.752 12.4494 161.715 12.4494 163.679 12.4494C163.726 19.4441 163.679 26.4381 163.539 33.4315C163.395 38.4259 160.917 41.6431 156.105 43.0833C152.553 43.8395 149.094 43.5598 145.726 42.244C143.989 41.304 142.68 39.952 141.799 38.1875C143.342 37.1846 144.932 36.2518 146.568 35.3899C149.08 38.4564 152.166 39.1558 155.825 37.4881C157.658 35.8781 158.266 33.873 157.648 31.4732C155.381 33.8294 152.623 34.7154 149.373 34.131C143.537 32.8544 140.451 29.2175 140.116 23.2202C140.527 17.0789 143.706 13.3021 149.653 11.8899ZM149.934 17.4851C155.91 17.0562 158.388 19.7606 157.367 25.5982C155.133 28.9417 152.188 29.7342 148.531 27.9762C145.285 24.8881 145.192 21.7175 148.251 18.4643C148.876 18.201 149.437 17.8746 149.934 17.4851Z" fill="white"/>
<path opacity="0.954" fill-rule="evenodd" clip-rule="evenodd" d="M177.143 11.8899C186.233 12.0988 190.441 16.7615 189.766 25.878C184.34 25.7849 178.917 25.8781 173.497 26.1577C174.677 28.5679 176.641 29.7801 179.388 29.7947C181.294 29.6906 182.884 28.9447 184.156 27.5566C185.757 28.353 187.253 29.2855 188.644 30.3542C186.378 33.5823 183.246 35.0743 179.247 34.8304C170.611 34.3282 166.684 29.7588 167.466 21.122C168.747 15.9728 171.973 12.8954 177.143 11.8899ZM177.424 17.2054C179.98 16.8252 181.99 17.6645 183.455 19.7232C183.771 20.2395 183.912 20.799 183.876 21.4018C180.321 21.4484 176.768 21.4018 173.216 21.2619C173.858 19.0821 175.261 17.7299 177.424 17.2054Z" fill="white"/>
<path opacity="0.963" fill-rule="evenodd" clip-rule="evenodd" d="M225.392 12.1696C226.046 12.1696 226.701 12.1696 227.355 12.1696C227.355 14.3145 227.355 16.4593 227.355 18.6042C224.799 18.224 222.789 19.0633 221.324 21.122C221.047 21.9402 220.86 22.7795 220.763 23.6399C220.623 27.1823 220.576 30.726 220.623 34.2708C218.753 34.2708 216.883 34.2708 215.013 34.2708C215.013 26.997 215.013 19.7232 215.013 12.4494C216.883 12.4494 218.753 12.4494 220.623 12.4494C220.576 13.5723 220.623 14.6914 220.763 15.8066C221.72 13.8184 223.263 12.6061 225.392 12.1696Z" fill="white"/>
<path opacity="0.953" fill-rule="evenodd" clip-rule="evenodd" d="M240.82 12.4494C246.337 12.4494 251.853 12.4494 257.37 12.4494C257.481 13.9765 257.341 15.4686 256.949 16.9256C254.029 20.7927 251.177 24.7094 248.394 28.6756C251.474 28.9551 254.559 29.0482 257.651 28.9554C257.651 30.7271 257.651 32.4991 257.651 34.2708C251.853 34.2708 246.056 34.2708 240.259 34.2708C240.212 32.9618 240.259 31.6565 240.399 30.3542C243.345 26.2976 246.29 22.2411 249.235 18.1845C246.432 18.0447 243.627 17.9981 240.82 18.0446C240.82 16.1796 240.82 14.3145 240.82 12.4494Z" fill="white"/>
<path opacity="0.894" fill-rule="evenodd" clip-rule="evenodd" d="M4.06738 36.7887C47.7339 37.4487 91.4004 38.1481 135.067 38.8869C91.4052 39.8124 47.7389 40.5118 4.06738 40.9851C4.06738 39.5863 4.06738 38.1875 4.06738 36.7887Z" fill="white"/>
</mask>
<g mask="url(#mask0_69_1406)">
<rect x="2.9375" y="-27.9062" width="255.562" height="95.4688" fill="url(#paint0_linear_69_1406)"/>
</g>
<defs>
<linearGradient id="paint0_linear_69_1406" x1="2.9375" y1="19.8281" x2="258.5" y2="19.8281" gradientUnits="userSpaceOnUse">
<stop stop-color="#2B98EE"/>
<stop offset="1" stop-color="#39BBA7"/>
</linearGradient>
</defs>
</svg>
