<svg viewBox="0 0 23 26" fill="none" xmlns="http://www.w3.org/2000/svg">
<path d="M4.76815 1.91574C5.09726 1.53865 5.05836 0.96616 4.68127 0.637055C4.30417 0.307951 3.73169 0.346852 3.40258 0.723944L1.84165 2.51248C0.956228 3.52701 0.455699 4.82055 0.427621 6.16682L0.359134 9.45065C0.348697 9.95105 0.745891 10.3652 1.24629 10.3756C1.74669 10.386 2.1608 9.98884 2.17124 9.48845L2.23973 6.20461C2.25894 5.28348 2.6014 4.39843 3.20722 3.70428L4.76815 1.91574Z" fill="black"/>
<path fill-rule="evenodd" clip-rule="evenodd" d="M4.5364 8.30514C4.70423 5.62175 6.9295 3.53132 9.61812 3.53132H10.2917V2.62507C10.2917 1.95773 10.8327 1.41674 11.5 1.41674C12.1673 1.41674 12.7083 1.95773 12.7083 2.62507V3.53132H13.3819C16.0705 3.53132 18.2958 5.62175 18.4636 8.30514L18.7306 12.5747C18.8325 14.2026 19.379 15.7713 20.3107 17.1101C21.1525 18.3197 20.4031 19.9903 18.9399 20.1659L14.8229 20.6599V21.9584C14.8229 23.7936 13.3352 25.2813 11.5 25.2813C9.66481 25.2813 8.17709 23.7936 8.17709 21.9584V20.6599L4.06014 20.1659C2.59693 19.9903 1.8475 18.3197 2.68933 17.1101C3.62102 15.7713 4.16754 14.2026 4.26935 12.5747L4.5364 8.30514ZM9.61812 5.34382C7.88658 5.34382 6.45345 6.69011 6.34536 8.41828L6.07832 12.6879C5.9558 14.6467 5.29816 16.5344 4.17701 18.1454C4.11616 18.2328 4.17033 18.3536 4.27609 18.3663L8.79243 18.9082C10.591 19.1241 12.409 19.1241 14.2076 18.9082L18.7239 18.3663C18.8297 18.3536 18.8838 18.2328 18.823 18.1454C17.7018 16.5344 17.0442 14.6467 16.9217 12.6879L16.6546 8.41828C16.5465 6.69011 15.1134 5.34382 13.3819 5.34382H9.61812ZM11.5 23.4688C10.6658 23.4688 9.98959 22.7926 9.98959 21.9584V21.0522H13.0104V21.9584C13.0104 22.7926 12.3342 23.4688 11.5 23.4688Z" fill="black"/>
<path d="M18.3187 0.637055C17.9417 0.96616 17.9028 1.53865 18.2319 1.91574L19.7928 3.70428C20.3986 4.39843 20.7411 5.28348 20.7603 6.20461L20.8288 9.48845C20.8392 9.98884 21.2533 10.386 21.7537 10.3756C22.2541 10.3652 22.6513 9.95105 22.6409 9.45065L22.5724 6.16682C22.5443 4.82055 22.0438 3.52701 21.1584 2.51248L19.5974 0.723944C19.2683 0.346852 18.6958 0.307951 18.3187 0.637055Z" fill="black"/>
</svg>
