<svg viewBox="0 0 29 29" fill="none" xmlns="http://www.w3.org/2000/svg">
<path fill-rule="evenodd" clip-rule="evenodd" d="M16.1355 10.5729H4.83333C4.33282 10.5729 3.92708 10.1672 3.92708 9.66667C3.92708 9.16616 4.33282 8.76042 4.83333 8.76042H16.1355C16.53 7.36569 17.8123 6.34375 19.3333 6.34375C20.8544 6.34375 22.1367 7.36569 22.5312 8.76042H24.1667C24.6672 8.76042 25.0729 9.16616 25.0729 9.66667C25.0729 10.1672 24.6672 10.5729 24.1667 10.5729H22.5312C22.1367 11.9676 20.8544 12.9896 19.3333 12.9896C17.8123 12.9896 16.53 11.9676 16.1355 10.5729ZM17.8229 9.66667C17.8229 8.83249 18.4991 8.15625 19.3333 8.15625C20.1675 8.15625 20.8437 8.83249 20.8437 9.66667C20.8437 10.5008 20.1675 11.1771 19.3333 11.1771C18.4991 11.1771 17.8229 10.5008 17.8229 9.66667Z" fill="black"/>
<path fill-rule="evenodd" clip-rule="evenodd" d="M12.8645 20.2396H24.1667C24.6672 20.2396 25.0729 19.8338 25.0729 19.3333C25.0729 18.8328 24.6672 18.4271 24.1667 18.4271H12.8645C12.47 17.0324 11.1877 16.0104 9.66666 16.0104C8.14564 16.0104 6.8633 17.0324 6.46883 18.4271H4.83333C4.33282 18.4271 3.92708 18.8328 3.92708 19.3333C3.92708 19.8338 4.33282 20.2396 4.83333 20.2396H6.46883C6.8633 21.6343 8.14564 22.6562 9.66666 22.6562C11.1877 22.6562 12.47 21.6343 12.8645 20.2396ZM8.15625 19.3333C8.15625 18.4992 8.83248 17.8229 9.66666 17.8229C10.5008 17.8229 11.1771 18.4992 11.1771 19.3333C11.1771 20.1675 10.5008 20.8438 9.66666 20.8438C8.83248 20.8438 8.15625 20.1675 8.15625 19.3333Z" fill="black"/>
</svg>
